<?xml version="1.0" standalone="no"?>
<svg xmlns="http://www.w3.org/2000/svg" xmlns:xlink="http://www.w3.org/1999/xlink" height="1080px" width="1920px">
  <defs>
    <pattern id="doodad" width="30" height="30" viewBox="0 0 40 40" patternUnits="userSpaceOnUse" patternTransform="rotate(45)">
      <rect width="100%" height="100%" fill="#63b3ed"/>
      <path d="M40 20L34 14L34 6L26 6L20 0L14 6L6 6L6 14L0 20L6 26L6 34L14 34L20 40L26 34L34 34L34 26z" fill="#2b6cb0"/>
      <path d="M32 20L34 14L34 6L26 6L20 8L14 6L6 6L6 14L8 20L6 26L6 34L14 34L20 32L26 34L34 34L34 26z" fill="#2a4365"/>
      <path d="M2 2L6 14v-8h8zM38 2L26 6h8v8zM2 38L6 26v8h8zM38 38L34 26v8h-8z" fill="#2b6cb0"/>
    </pattern>
  </defs>
  <rect fill="url(#doodad)" height="200%" width="200%"/>
</svg>
